<mxfile host="Electron" modified="2024-02-10T06:48:38.179Z" agent="Mozilla/5.0 (Macintosh; Intel Mac OS X 10_15_7) AppleWebKit/537.36 (KHTML, like Gecko) draw.io/23.0.2 Chrome/120.0.6099.109 Electron/28.1.0 Safari/537.36" etag="gVLl1lXhVdrXjQhYV13l" version="23.0.2" type="device">
  <diagram name="페이지-1" id="W21MSWZ99ftlb8hcCyki">
    <mxGraphModel dx="1114" dy="894" grid="1" gridSize="10" guides="1" tooltips="1" connect="1" arrows="1" fold="1" page="1" pageScale="1" pageWidth="827" pageHeight="1169" math="0" shadow="0">
      <root>
        <mxCell id="0" />
        <mxCell id="1" parent="0" />
        <mxCell id="zP_N84Sm9zAxg-qUfcRf-5" style="edgeStyle=orthogonalEdgeStyle;rounded=0;orthogonalLoop=1;jettySize=auto;html=1;endArrow=block;endFill=1;" edge="1" parent="1" source="zP_N84Sm9zAxg-qUfcRf-1" target="zP_N84Sm9zAxg-qUfcRf-2">
          <mxGeometry relative="1" as="geometry" />
        </mxCell>
        <mxCell id="zP_N84Sm9zAxg-qUfcRf-1" value="" style="sketch=0;outlineConnect=0;fontColor=#232F3E;gradientColor=none;fillColor=#232F3D;strokeColor=none;dashed=0;verticalLabelPosition=bottom;verticalAlign=top;align=center;html=1;fontSize=12;fontStyle=0;aspect=fixed;pointerEvents=1;shape=mxgraph.aws4.user;" vertex="1" parent="1">
          <mxGeometry x="130" y="245" width="30" height="30" as="geometry" />
        </mxCell>
        <mxCell id="zP_N84Sm9zAxg-qUfcRf-6" style="rounded=0;orthogonalLoop=1;jettySize=auto;html=1;endArrow=block;endFill=1;" edge="1" parent="1">
          <mxGeometry relative="1" as="geometry">
            <mxPoint x="320" y="242.68292682926835" as="sourcePoint" />
            <mxPoint x="480" y="184.14634146341473" as="targetPoint" />
          </mxGeometry>
        </mxCell>
        <mxCell id="zP_N84Sm9zAxg-qUfcRf-7" style="rounded=0;orthogonalLoop=1;jettySize=auto;html=1;endArrow=block;endFill=1;" edge="1" parent="1">
          <mxGeometry relative="1" as="geometry">
            <mxPoint x="320" y="277.31707317073165" as="sourcePoint" />
            <mxPoint x="480" y="335.85365853658527" as="targetPoint" />
          </mxGeometry>
        </mxCell>
        <mxCell id="zP_N84Sm9zAxg-qUfcRf-2" value="Client" style="sketch=0;outlineConnect=0;fontColor=#232F3E;gradientColor=none;strokeColor=#232F3E;fillColor=#ffffff;dashed=0;verticalLabelPosition=bottom;verticalAlign=top;align=center;html=1;fontSize=12;fontStyle=0;aspect=fixed;shape=mxgraph.aws4.resourceIcon;resIcon=mxgraph.aws4.mobile_client;" vertex="1" parent="1">
          <mxGeometry x="280" y="240" width="40" height="40" as="geometry" />
        </mxCell>
        <mxCell id="zP_N84Sm9zAxg-qUfcRf-3" value="권한 부여 서버" style="sketch=0;outlineConnect=0;fontColor=#232F3E;gradientColor=none;strokeColor=#232F3E;fillColor=#ffffff;dashed=0;verticalLabelPosition=bottom;verticalAlign=top;align=center;html=1;fontSize=12;fontStyle=0;aspect=fixed;shape=mxgraph.aws4.resourceIcon;resIcon=mxgraph.aws4.traditional_server;" vertex="1" parent="1">
          <mxGeometry x="480" y="160" width="50" height="50" as="geometry" />
        </mxCell>
        <mxCell id="zP_N84Sm9zAxg-qUfcRf-4" value="리소스 서버" style="sketch=0;outlineConnect=0;fontColor=#232F3E;gradientColor=none;strokeColor=#232F3E;fillColor=#ffffff;dashed=0;verticalLabelPosition=bottom;verticalAlign=top;align=center;html=1;fontSize=12;fontStyle=0;aspect=fixed;shape=mxgraph.aws4.resourceIcon;resIcon=mxgraph.aws4.traditional_server;" vertex="1" parent="1">
          <mxGeometry x="480" y="310" width="50" height="50" as="geometry" />
        </mxCell>
        <mxCell id="zP_N84Sm9zAxg-qUfcRf-8" style="rounded=0;orthogonalLoop=1;jettySize=auto;html=1;endArrow=none;endFill=0;startArrow=block;startFill=1;" edge="1" parent="1">
          <mxGeometry relative="1" as="geometry">
            <mxPoint x="320" y="258.68292682926835" as="sourcePoint" />
            <mxPoint x="480" y="200.14634146341473" as="targetPoint" />
          </mxGeometry>
        </mxCell>
        <mxCell id="zP_N84Sm9zAxg-qUfcRf-13" style="edgeStyle=orthogonalEdgeStyle;rounded=0;orthogonalLoop=1;jettySize=auto;html=1;curved=1;fillColor=#d5e8d4;strokeColor=#82b366;" edge="1" parent="1" source="zP_N84Sm9zAxg-qUfcRf-10">
          <mxGeometry relative="1" as="geometry">
            <mxPoint x="400" y="210" as="targetPoint" />
          </mxGeometry>
        </mxCell>
        <mxCell id="zP_N84Sm9zAxg-qUfcRf-10" value="① 원하는 데이터에 접근하려면 앱에 토큰이 필요함.&lt;br&gt;토큰을 얻으려면 인증이 필요" style="text;html=1;strokeColor=#82b366;fillColor=#d5e8d4;align=left;verticalAlign=middle;whiteSpace=wrap;rounded=0;" vertex="1" parent="1">
          <mxGeometry x="220" y="110" width="250" height="50" as="geometry" />
        </mxCell>
        <mxCell id="zP_N84Sm9zAxg-qUfcRf-14" style="edgeStyle=orthogonalEdgeStyle;rounded=0;orthogonalLoop=1;jettySize=auto;html=1;curved=1;fillColor=#d5e8d4;strokeColor=#82b366;" edge="1" parent="1" source="zP_N84Sm9zAxg-qUfcRf-11">
          <mxGeometry relative="1" as="geometry">
            <mxPoint x="370" y="240" as="targetPoint" />
          </mxGeometry>
        </mxCell>
        <mxCell id="zP_N84Sm9zAxg-qUfcRf-11" value="② 앱이 액세스 토큰을 얻음" style="text;html=1;strokeColor=#82b366;fillColor=#d5e8d4;align=left;verticalAlign=middle;whiteSpace=wrap;rounded=0;" vertex="1" parent="1">
          <mxGeometry x="420" y="245" width="150" height="35" as="geometry" />
        </mxCell>
        <mxCell id="zP_N84Sm9zAxg-qUfcRf-15" style="edgeStyle=orthogonalEdgeStyle;rounded=0;orthogonalLoop=1;jettySize=auto;html=1;curved=1;fillColor=#d5e8d4;strokeColor=#82b366;" edge="1" parent="1" source="zP_N84Sm9zAxg-qUfcRf-12">
          <mxGeometry relative="1" as="geometry">
            <mxPoint x="390" y="310" as="targetPoint" />
          </mxGeometry>
        </mxCell>
        <mxCell id="zP_N84Sm9zAxg-qUfcRf-12" value="③ 앱은 액세스 토큰을 이용하여 리소스 서버에 있는 리소스에 접근 가능" style="text;html=1;strokeColor=#82b366;fillColor=#d5e8d4;align=left;verticalAlign=middle;whiteSpace=wrap;rounded=0;" vertex="1" parent="1">
          <mxGeometry x="200" y="370" width="250" height="50" as="geometry" />
        </mxCell>
      </root>
    </mxGraphModel>
  </diagram>
</mxfile>
